<svg width="24" height="20" viewBox="0 0 24 20" fill="none" xmlns="http://www.w3.org/2000/svg">
<path fill-rule="evenodd" clip-rule="evenodd" d="M1 0C0.447715 0 0 0.447715 0 1V14C0 14.5523 0.447715 15 1 15H2.33682C2.12085 15.4546 2 15.9632 2 16.5C2 18.433 3.567 20 5.5 20C7.433 20 9 18.433 9 16.5C9 15.9632 8.87915 15.4546 8.66318 15H15.3368C15.1208 15.4546 15 15.9632 15 16.5C15 18.433 16.567 20 18.5 20C20.433 20 22 18.433 22 16.5C22 15.9632 21.8792 15.4546 21.6632 15H23C23.5523 15 24 14.5523 24 14V9C24 8.73478 23.8946 8.48043 23.7071 8.29289L20.7071 5.29289C20.5196 5.10536 20.2652 5 20 5H17V1C17 0.447715 16.5523 0 16 0H1ZM18.5 13H22V9.41421L19.5858 7H17V13H18.5ZM18.5 15C17.6716 15 17 15.6716 17 16.5C17 17.3284 17.6716 18 18.5 18C19.3284 18 20 17.3284 20 16.5C20 15.6716 19.3284 15 18.5 15ZM4 16.5C4 15.6716 4.67157 15 5.5 15C6.32843 15 7 15.6716 7 16.5C7 17.3284 6.32843 18 5.5 18C4.67157 18 4 17.3284 4 16.5ZM15 13H5.5H2V2H15V6V13Z" fill="black" fill-opacity="0.5"/>
</svg>
